<?xml version="1.0" encoding="utf-8"?>
<!-- Generator: Adobe Illustrator 26.0.3, SVG Export Plug-In . SVG Version: 6.00 Build 0)  -->
<svg version="1.1" id="Layer_1" xmlns="http://www.w3.org/2000/svg" xmlns:xlink="http://www.w3.org/1999/xlink" x="0px" y="0px"
	 viewBox="0 0 33.7 32" style="enable-background:new 0 0 33.7 32;" xml:space="preserve">
<style type="text/css">
	.st0{fill:#FFFFFF;}
	.st1{fill:#2186C4;}
</style>
<circle class="st0" cx="16.9" cy="15.5" r="6.9"/>
<path class="st1" d="M16.9,6.6c-2.5,0-4.9,1-6.7,2.8s-2.8,4.2-2.8,6.7c0,6.5,6.5,12.5,8.5,14.2c0.3,0.2,0.6,0.3,1,0.3s0.7-0.1,1-0.3
	c2-1.7,8.5-7.6,8.5-14.2c0-2.5-1-4.9-2.8-6.7C21.8,7.6,19.4,6.6,16.9,6.6L16.9,6.6z M16.9,21.1c-1,0-2-0.3-2.8-0.8s-1.5-1.3-1.8-2.2
	c-0.4-1-0.5-2-0.3-3s0.7-1.9,1.4-2.6c0.7-0.7,1.6-1.2,2.6-1.4s2-0.1,2.9,0.3c0.9,0.4,1.7,1,2.2,1.8s0.8,1.8,0.8,2.8
	c0,0.7-0.1,1.3-0.4,1.9c-0.3,0.6-0.6,1.2-1.1,1.6c-0.5,0.5-1,0.8-1.6,1.1C18.2,21,17.6,21.1,16.9,21.1z"/>
</svg>
